<svg width="108" height="118" viewBox="0 0 108 118" fill="none" xmlns="http://www.w3.org/2000/svg">
<path d="M88.4507 107.908L95.4033 114.439C95.6428 114.664 95.7625 114.777 95.9037 114.805C95.9673 114.817 96.0327 114.817 96.0963 114.805C96.2375 114.777 96.3572 114.664 96.5967 114.439L103.549 107.908C105.506 106.071 105.743 103.047 104.098 100.926L103.788 100.527C101.82 97.9906 97.8696 98.416 96.4867 101.314C96.2913 101.723 95.7087 101.723 95.5133 101.314C94.1304 98.416 90.1797 97.9906 88.2115 100.527L87.9022 100.926C86.2569 103.047 86.4945 106.071 88.4507 107.908Z" stroke="#33363F" stroke-width="2"/>
</svg>
